<svg width="24" height="25" viewBox="0 0 24 25" fill="none" xmlns="http://www.w3.org/2000/svg">
<path fill-rule="evenodd" clip-rule="evenodd" d="M0.917083 3.75506C1.11465 3.73315 1.31283 3.79057 1.46809 3.9147C1.62334 4.03883 1.72297 4.21952 1.74508 4.41706L2.67108 12.7501H9.00108C9.2 12.7501 9.39076 12.8291 9.53141 12.9697C9.67207 13.1104 9.75108 13.3011 9.75108 13.5001C9.75108 13.699 9.67207 13.8897 9.53141 14.0304C9.39076 14.171 9.2 14.2501 9.00108 14.2501H2.00008C1.81544 14.2502 1.63723 14.1822 1.49958 14.0592C1.36193 13.9361 1.27452 13.7666 1.25408 13.5831L0.254083 4.58306C0.232176 4.38549 0.289595 4.18731 0.413725 4.03206C0.537854 3.8768 0.719539 3.77717 0.917083 3.75506ZM23.0831 3.75506C22.8855 3.73315 22.6873 3.79057 22.5321 3.9147C22.3768 4.03883 22.2772 4.21952 22.2551 4.41706L21.3291 12.7501H14.9991C14.8002 12.7501 14.6094 12.8291 14.4688 12.9697C14.3281 13.1104 14.2491 13.3011 14.2491 13.5001C14.2491 13.699 14.3281 13.8897 14.4688 14.0304C14.6094 14.171 14.8002 14.2501 14.9991 14.2501H21.9991C22.1837 14.2502 22.3619 14.1822 22.4996 14.0592C22.6372 13.9361 22.7246 13.7666 22.7451 13.5831L23.7451 4.58306C23.767 4.38549 23.7096 4.18731 23.5854 4.03206C23.4613 3.8768 23.2806 3.77717 23.0831 3.75506Z" fill="#010101"/>
<path fill-rule="evenodd" clip-rule="evenodd" d="M3.12315 12.7602C3.22034 12.7763 3.3134 12.8114 3.39701 12.8635C3.48062 12.9156 3.55314 12.9837 3.61044 13.0639C3.66773 13.144 3.70868 13.2346 3.73094 13.3306C3.75319 13.4266 3.75633 13.526 3.74015 13.6232L2.74015 19.6232C2.724 19.7204 2.68886 19.8134 2.63675 19.897C2.58464 19.9806 2.51657 20.0531 2.43644 20.1104C2.3563 20.1677 2.26566 20.2087 2.1697 20.2309C2.07374 20.2532 1.97433 20.2563 1.87715 20.2402C1.77997 20.224 1.68693 20.1889 1.60333 20.1368C1.51973 20.0847 1.44721 20.0166 1.38992 19.9365C1.33263 19.8563 1.29168 19.7657 1.26941 19.6697C1.24715 19.5738 1.244 19.4744 1.26015 19.3772L2.26015 13.3772C2.27629 13.28 2.31141 13.1869 2.36352 13.1033C2.41562 13.0197 2.48369 12.9472 2.56383 12.8899C2.64397 12.8326 2.73462 12.7916 2.83059 12.7694C2.92656 12.7471 3.02597 12.744 3.12315 12.7602ZM20.8772 12.7602C20.78 12.7763 20.6869 12.8114 20.6033 12.8635C20.5197 12.9156 20.4472 12.9837 20.3899 13.0639C20.3326 13.144 20.2916 13.2346 20.2694 13.3306C20.2471 13.4266 20.244 13.526 20.2602 13.6232L21.2602 19.6232C21.2763 19.7204 21.3114 19.8134 21.3636 19.897C21.4157 19.9806 21.4837 20.0531 21.5639 20.1104C21.644 20.1677 21.7346 20.2087 21.8306 20.2309C21.9266 20.2532 22.026 20.2563 22.1232 20.2402C22.2203 20.224 22.3134 20.1889 22.397 20.1368C22.4806 20.0847 22.5531 20.0166 22.6104 19.9365C22.6677 19.8563 22.7086 19.7657 22.7309 19.6697C22.7532 19.5738 22.7563 19.4744 22.7402 19.3772L21.7402 13.3772C21.724 13.28 21.6889 13.1869 21.6368 13.1033C21.5847 13.0197 21.5166 12.9472 21.4365 12.8899C21.3563 12.8326 21.2657 12.7916 21.1697 12.7694C21.0737 12.7471 20.9743 12.744 20.8772 12.7602ZM7.87715 12.7602C7.97433 12.744 8.07375 12.7471 8.16972 12.7694C8.26569 12.7916 8.35633 12.8326 8.43647 12.8899C8.51662 12.9472 8.58468 13.0197 8.63679 13.1033C8.6889 13.1869 8.72402 13.28 8.74015 13.3772L9.74015 19.3772C9.7563 19.4744 9.75316 19.5738 9.73089 19.6697C9.70863 19.7657 9.66768 19.8563 9.61039 19.9365C9.55309 20.0166 9.48058 20.0847 9.39698 20.1368C9.31338 20.1889 9.22033 20.224 9.12315 20.2402C9.02597 20.2563 8.92657 20.2532 8.8306 20.2309C8.73464 20.2087 8.644 20.1677 8.56387 20.1104C8.48373 20.0531 8.41566 19.9806 8.36355 19.897C8.31144 19.8134 8.27631 19.7204 8.26015 19.6232L7.26015 13.6232C7.24398 13.526 7.24711 13.4266 7.26937 13.3306C7.29162 13.2346 7.33257 13.144 7.38987 13.0639C7.44717 12.9837 7.51969 12.9156 7.6033 12.8635C7.68691 12.8114 7.77997 12.7763 7.87715 12.7602ZM16.1232 12.7602C16.026 12.744 15.9266 12.7471 15.8306 12.7694C15.7346 12.7916 15.644 12.8326 15.5638 12.8899C15.4837 12.9472 15.4156 13.0197 15.3635 13.1033C15.3114 13.1869 15.2763 13.28 15.2602 13.3772L14.2602 19.3772C14.2275 19.5734 14.2742 19.7746 14.3899 19.9365C14.5056 20.0983 14.6809 20.2076 14.8772 20.2402C15.0734 20.2728 15.2746 20.2261 15.4364 20.1104C15.5983 19.9947 15.7075 19.8194 15.7402 19.6232L16.7402 13.6232C16.7563 13.526 16.7532 13.4266 16.7309 13.3306C16.7087 13.2346 16.6677 13.144 16.6104 13.0639C16.5531 12.9837 16.4806 12.9156 16.397 12.8635C16.3134 12.8114 16.2203 12.7763 16.1232 12.7602ZM10.2502 19.5002C10.2502 19.3013 10.3292 19.1105 10.4698 18.9698C10.6105 18.8292 10.8012 18.7502 11.0002 18.7502H13.0002C13.1991 18.7502 13.3898 18.8292 13.5305 18.9698C13.6711 19.1105 13.7502 19.3013 13.7502 19.5002C13.7502 19.6991 13.6711 19.8899 13.5305 20.0305C13.3898 20.1712 13.1991 20.2502 13.0002 20.2502H11.0002C10.8012 20.2502 10.6105 20.1712 10.4698 20.0305C10.3292 19.8899 10.2502 19.6991 10.2502 19.5002Z" fill="#010101"/>
<path fill-rule="evenodd" clip-rule="evenodd" d="M12 9.75C12.1989 9.75 12.3897 9.82902 12.5303 9.96967C12.671 10.1103 12.75 10.3011 12.75 10.5V19.5C12.75 19.6989 12.671 19.8897 12.5303 20.0303C12.3897 20.171 12.1989 20.25 12 20.25C11.8011 20.25 11.6103 20.171 11.4697 20.0303C11.329 19.8897 11.25 19.6989 11.25 19.5V10.5C11.25 10.3011 11.329 10.1103 11.4697 9.96967C11.6103 9.82902 11.8011 9.75 12 9.75Z" fill="#010101"/>
<path fill-rule="evenodd" clip-rule="evenodd" d="M6 6.75C5.53587 6.75 5.09075 6.93437 4.76256 7.26256C4.43437 7.59075 4.25 8.03587 4.25 8.5V9.5C4.25 10.467 5.033 11.25 6 11.25H18C18.4641 11.25 18.9092 11.0656 19.2374 10.7374C19.5656 10.4092 19.75 9.96413 19.75 9.5V8.5C19.75 8.03587 19.5656 7.59075 19.2374 7.26256C18.9092 6.93437 18.4641 6.75 18 6.75H6Z" fill="#010101"/>
</svg>
