<svg width="33" height="33" viewBox="0 0 33 33" fill="none" xmlns="http://www.w3.org/2000/svg">
<path d="M28.2734 11.1799L19.54 4.19319C17.8334 2.8332 15.1667 2.81986 13.4734 4.17986L4.74003 11.1799C3.4867 12.1799 2.7267 14.1799 2.99337 15.7532L4.67337 25.8065C5.06003 28.0599 7.15337 29.8332 9.43336 29.8332H23.5667C25.82 29.8332 27.9534 28.0199 28.34 25.7932L30.02 15.7399C30.26 14.1799 29.5 12.1799 28.2734 11.1799ZM17.5 24.4999C17.5 25.0465 17.0467 25.4999 16.5 25.4999C15.9534 25.4999 15.5 25.0465 15.5 24.4999V20.4999C15.5 19.9532 15.9534 19.4999 16.5 19.4999C17.0467 19.4999 17.5 19.9532 17.5 20.4999V24.4999Z" fill="#A20538"/>
</svg>
