<svg width="24" height="25" viewBox="0 0 24 25" fill="none" xmlns="http://www.w3.org/2000/svg">
<path d="M16.19 2.5H7.81C4.17 2.5 2 4.67 2 8.31V16.68C2 20.33 4.17 22.5 7.81 22.5H16.18C19.82 22.5 21.99 20.33 21.99 16.69V8.31C22 4.67 19.83 2.5 16.19 2.5ZM17 17.75H7C6.59 17.75 6.25 17.41 6.25 17C6.25 16.59 6.59 16.25 7 16.25H17C17.41 16.25 17.75 16.59 17.75 17C17.75 17.41 17.41 17.75 17 17.75ZM17 13.25H7C6.59 13.25 6.25 12.91 6.25 12.5C6.25 12.09 6.59 11.75 7 11.75H17C17.41 11.75 17.75 12.09 17.75 12.5C17.75 12.91 17.41 13.25 17 13.25ZM17 8.75H7C6.59 8.75 6.25 8.41 6.25 8C6.25 7.59 6.59 7.25 7 7.25H17C17.41 7.25 17.75 7.59 17.75 8C17.75 8.41 17.41 8.75 17 8.75Z" fill="#010101"/>
</svg>
