<svg width="24" height="25" viewBox="0 0 24 25" fill="none" xmlns="http://www.w3.org/2000/svg">
<path d="M16 9.25C15.59 9.25 15.25 8.91 15.25 8.5V5C15.25 3.92 14.58 3.25 13.5 3.25H10.5C9.42 3.25 8.75 3.92 8.75 5V8.5C8.75 8.91 8.41 9.25 8 9.25C7.59 9.25 7.25 8.91 7.25 8.5V5C7.25 3.09 8.59 1.75 10.5 1.75H13.5C15.41 1.75 16.75 3.09 16.75 5V8.5C16.75 8.91 16.41 9.25 16 9.25Z" fill="#010101"/>
<path d="M7.99997 18.28C7.58997 18.28 7.24997 17.94 7.24997 17.53C7.24997 17.11 7.58997 16.78 7.99997 16.78H19.76C20.06 16.78 20.29 16.52 20.26 16.22L19.58 10.53C19.34 8.59 19 7 15.6 7H8.39997C4.99997 7 4.65997 8.59 4.42997 10.53L3.52997 18.03C3.23997 20.49 3.99997 22.5 7.50997 22.5H16.49C19.65 22.5 20.58 20.87 20.53 18.75C20.52 18.48 20.3 18.28 20.03 18.28H7.99997Z" fill="#010101"/>
</svg>
