<svg width="28" height="28" viewBox="0 0 28 28" fill="none" xmlns="http://www.w3.org/2000/svg">
<g clip-path="url(#clip0_752_1341)">
<path d="M14 28C21.732 28 28 21.732 28 14C28 6.26801 21.732 0 14 0C6.26801 0 0 6.26801 0 14C0 21.732 6.26801 28 14 28Z" fill="white"/>
<path d="M13.9999 2.92822L17.1806 9.37293L24.2927 10.4064L19.1463 15.4229L20.3612 22.5063L13.9999 19.162L7.63857 22.5063L8.85345 15.4229L3.70703 10.4064L10.8192 9.37293L13.9999 2.92822Z" fill="#FFCE00"/>
<path d="M14 19.164V19.162L20.3613 22.5063L19.1464 15.4229L24.2928 10.4064L17.1807 9.37293L14 2.92822V19.164Z" fill="#FFBC00"/>
<path d="M14 2.92822V13.0806L24.2928 10.4064L17.1807 9.37293L14 2.92822Z" fill="#FF9500"/>
<path d="M20.3613 22.5063L14 13.0806L7.63867 22.5063L14 19.162L20.3613 22.5063Z" fill="#FFAA00"/>
<path d="M20.3613 22.5063L14 13.0806V19.164V19.162L20.3613 22.5063Z" fill="#FF9500"/>
<path d="M10.8192 9.37293L3.70703 10.4064L13.9999 13.0806V2.92822" fill="#FFDC4A"/>
</g>
<defs>
<clipPath id="clip0_752_1341">
<rect width="28" height="28" fill="white"/>
</clipPath>
</defs>
</svg>
