<svg width="25" height="25" viewBox="0 0 25 25" fill="none" xmlns="http://www.w3.org/2000/svg">
<path d="M21.95 14.1399V15.1399C21.95 15.4099 21.74 15.6299 21.46 15.6399H20C19.47 15.6399 18.99 15.2499 18.95 14.7299C18.92 14.4199 19.04 14.1299 19.24 13.9299C19.42 13.7399 19.67 13.6399 19.94 13.6399H21.45C21.74 13.6499 21.95 13.8699 21.95 14.1399Z" fill="#010101"/>
<path d="M18.49 13.1899C17.99 13.6799 17.75 14.4099 17.95 15.1699C18.21 16.0999 19.12 16.6899 20.08 16.6899H20.95C21.5 16.6899 21.95 17.1399 21.95 17.6899V17.8799C21.95 19.9499 20.26 21.6399 18.19 21.6399H6.70995C4.63995 21.6399 2.94995 19.9499 2.94995 17.8799V11.1499C2.94995 9.91989 3.53995 8.82989 4.44995 8.14989C5.07995 7.66989 5.85995 7.38989 6.70995 7.38989H18.19C20.26 7.38989 21.95 9.07989 21.95 11.1499V11.5899C21.95 12.1399 21.5 12.5899 20.95 12.5899H19.93C19.37 12.5899 18.86 12.8099 18.49 13.1899Z" fill="#010101"/>
<path d="M16.7001 5.32C16.9701 5.59 16.7401 6.01 16.3601 6.01L8.68006 6C8.24006 6 8.01006 5.46 8.33006 5.15L9.95006 3.52C11.3201 2.16 13.5401 2.16 14.9101 3.52L16.6601 5.29C16.6701 5.3 16.6901 5.31 16.7001 5.32Z" fill="#010101"/>
</svg>
